<svg width="40" height="40" viewBox="0 0 40 40" fill="none" xmlns="http://www.w3.org/2000/svg">
<path d="M27.8334 31.6331H12.1668C11.4668 31.6331 10.6834 31.0831 10.4501 30.4164L3.55009 11.1164C2.56675 8.34977 3.71675 7.49977 6.08342 9.19977L12.5834 13.8498C13.6668 14.5998 14.9001 14.2164 15.3668 12.9998L18.3001 5.18311C19.2334 2.68311 20.7834 2.68311 21.7168 5.18311L24.6501 12.9998C25.1168 14.2164 26.3501 14.5998 27.4168 13.8498L33.5168 9.49977C36.1168 7.63311 37.3668 8.58311 36.3001 11.5998L29.5668 30.4498C29.3168 31.0831 28.5334 31.6331 27.8334 31.6331Z" stroke="#252A3B" stroke-width="2.5" stroke-linecap="round" stroke-linejoin="round"/>
<path d="M10.8333 36.6665H29.1666" stroke="#252A3B" stroke-width="2.5" stroke-linecap="round" stroke-linejoin="round"/>
<path d="M15.8333 23.3335H24.1666" stroke="#252A3B" stroke-width="2.5" stroke-linecap="round" stroke-linejoin="round"/>
</svg>
