<svg width="52" height="52" viewBox="0 0 52 52" fill="none" xmlns="http://www.w3.org/2000/svg">
<path d="M15.0369 20.4096C13.2602 22.0996 10.4652 22.0779 8.68855 20.4096C6.26188 18.0913 3.46688 14.3646 4.48522 9.96625C6.21855 2.46958 17.5069 2.46958 19.2185 9.96625C19.4785 11.0279 19.5002 12.0246 19.3702 12.9996" stroke="white" stroke-width="2.5" stroke-linecap="round" stroke-linejoin="round"/>
<path d="M32.6517 35.9663C34.385 28.4696 45.7383 28.4696 47.4716 35.9663C48.49 40.3646 45.695 44.0913 43.2466 46.4096C41.47 48.0996 38.6533 48.0779 36.8767 46.4096C34.4283 44.0913 31.6333 40.3646 32.6517 35.9663Z" stroke="white" stroke-width="2.5"/>
<path d="M26.0002 10.833H31.8068C35.8152 10.833 37.6785 15.7947 34.6668 18.438L17.3552 33.583C14.3435 36.2047 16.2068 41.1664 20.1935 41.1664H26.0002" stroke="white" stroke-width="2.5" stroke-linecap="round" stroke-linejoin="round"/>
<path d="M26.0002 10.833H31.8068C35.8152 10.833 37.6785 15.7947 34.6668 18.438L17.3552 33.583C14.3435 36.2047 16.2068 41.1664 20.1935 41.1664H26.0002" stroke="white" stroke-width="2.5" stroke-linecap="round" stroke-linejoin="round"/>
<path d="M11.887 11.9163H11.9121" stroke="white" stroke-width="2" stroke-linecap="round" stroke-linejoin="round"/>
<path d="M40.0536 37.9163H40.0786" stroke="white" stroke-width="2" stroke-linecap="round" stroke-linejoin="round"/>
</svg>
