<svg width="22" height="23" viewBox="0 0 22 23" fill="none" xmlns="http://www.w3.org/2000/svg">
<path d="M20.9999 16.4201V19.4201C21.0011 19.6986 20.944 19.9743 20.8324 20.2294C20.7209 20.4846 20.5572 20.7137 20.352 20.902C20.1468 21.0902 19.9045 21.2336 19.6407 21.3228C19.3769 21.412 19.0973 21.4452 18.8199 21.4201C15.7428 21.0857 12.7869 20.0342 10.1899 18.3501C7.77376 16.8148 5.72527 14.7663 4.18993 12.3501C2.49991 9.7413 1.44818 6.77109 1.11993 3.6801C1.09494 3.40356 1.12781 3.12486 1.21643 2.86172C1.30506 2.59859 1.4475 2.35679 1.6347 2.15172C1.82189 1.94665 2.04974 1.78281 2.30372 1.67062C2.55771 1.55843 2.83227 1.50036 3.10993 1.5001H6.10993C6.59524 1.49532 7.06572 1.66718 7.43369 1.98363C7.80166 2.30008 8.04201 2.73954 8.10993 3.2201C8.23656 4.18016 8.47138 5.12282 8.80993 6.0301C8.94448 6.38802 8.9736 6.77701 8.89384 7.15098C8.81408 7.52494 8.6288 7.86821 8.35993 8.1401L7.08993 9.4101C8.51349 11.9136 10.5864 13.9865 13.0899 15.4101L14.3599 14.1401C14.6318 13.8712 14.9751 13.6859 15.3491 13.6062C15.723 13.5264 16.112 13.5556 16.4699 13.6901C17.3772 14.0286 18.3199 14.2635 19.2799 14.3901C19.7657 14.4586 20.2093 14.7033 20.5265 15.0776C20.8436 15.4519 21.0121 15.9297 20.9999 16.4201Z" stroke="#252A3B" stroke-width="1.5" stroke-linecap="round" stroke-linejoin="round"/>
</svg>
